<svg xmlns:mydata="http://www.w3.org/2000/svg" mydata:contrastcolor="ffffff" mydata:template="Contrast" mydata:presentation="2.5" mydata:layouttype="undefined" mydata:specialfontid="undefined" mydata:id1="005" mydata:id2="140" mydata:companyname="techpulse" mydata:companytagline="" version="1.1" xmlns="http://www.w3.org/2000/svg" xmlns:xlink="http://www.w3.org/1999/xlink" viewBox="0 0 550 470" style="background-color: rgb(254, 237, 217); background-image: radial-gradient(circle closest-side, rgba(255, 255, 255, 0.07) 0%, rgba(255, 255, 255, 0) 100%);"><style style="animation-play-state: running;">#pulse-circle1 {
                transform: scale(0);
                opacity: 0;
                transform-origin: 50% 50%;
                animation: pulse 4s cubic-bezier(.5,.5,0,1) infinite;
            }

            #pulse-circle2 {
                transform: scale(0);
                opacity: 0;
                transform-origin: 50% 50%;
                animation: pulse 4s 0.75s cubic-bezier(.5,.5,0,1) infinite;
            }

            #pulse-circle3 {
                transform: scale(0);
                opacity: 0;
                transform-origin: 50% 50%;
                animation: pulse 4s 1.5s cubic-bezier(.5,.5,0,1) infinite;
            }
            
            @keyframes pulse {                
                12% {
                    opacity: 0.3;
                }
                
                50% {
                    transform: scale(1);
                }
                
                100% {                    
                    transform: scale(1);
                }                
            }</style><g fill="#fb8500" fill-rule="none" stroke="none" stroke-width="1" stroke-linecap="butt" stroke-linejoin="miter" stroke-miterlimit="10" stroke-dasharray="" stroke-dashoffset="0" font-family="none" font-weight="none" font-size="none" text-anchor="none" style="mix-blend-mode: normal; animation-play-state: running;"><g data-paper-data="{&quot;isGlobalGroup&quot;:true,&quot;bounds&quot;:{&quot;x&quot;:65,&quot;y&quot;:128.29924461821057,&quot;width&quot;:420,&quot;height&quot;:213.40151076357884}}" style="animation-play-state: running;"><g data-paper-data="{&quot;isPrimaryText&quot;:true}" fill-rule="nonzero" style="animation-play-state: running;"><path d="M106.7301,306.88118h-16.99456v34.81957h-7.71132v-34.81957h-17.02422v-7.71132h41.7301z" data-paper-data="{&quot;glyphName&quot;:&quot;T&quot;,&quot;glyphIndex&quot;:0,&quot;firstGlyphOfWord&quot;:true,&quot;word&quot;:1}" style="animation-play-state: running;"/><path d="M147.36283,324.32063h-24.34998v-7.77064h24.34998zM150.83292,341.70076h-27.82007c-1.06772,0 -2.23431,-0.18784 -3.49975,-0.56352c-1.26545,-0.37568 -2.43697,-0.99357 -3.51458,-1.85368c-1.07761,-0.86011 -1.97726,-1.97726 -2.69896,-3.35146c-0.7217,-1.3742 -1.08255,-3.05981 -1.08255,-5.05685v-27.82007c0,-0.53386 0.09886,-1.03806 0.29659,-1.51261c0.19773,-0.47454 0.4696,-0.88977 0.81562,-1.24567c0.34602,-0.35591 0.7563,-0.63272 1.23085,-0.83045c0.47454,-0.19773 0.98863,-0.29659 1.54226,-0.29659h34.7306v7.71132h-30.9046v23.99407c0,1.0084 0.26693,1.77954 0.80079,2.3134c0.53386,0.53386 1.31488,0.80079 2.34305,0.80079h27.76075z" data-paper-data="{&quot;glyphName&quot;:&quot;E&quot;,&quot;glyphIndex&quot;:1,&quot;word&quot;:1}" style="animation-play-state: running;"/><path d="M196.09244,341.70076h-27.82007c-0.71181,0 -1.478,-0.08403 -2.29857,-0.2521c-0.82056,-0.16807 -1.63124,-0.43005 -2.43203,-0.78596c-0.80079,-0.35591 -1.56698,-0.81562 -2.29857,-1.37914c-0.73159,-0.56352 -1.37914,-1.24567 -1.94266,-2.04647c-0.56352,-0.80079 -1.01335,-1.7301 -1.34948,-2.78794c-0.33613,-1.05783 -0.5042,-2.24913 -0.5042,-3.5739v-20.87988c0,-0.71181 0.08403,-1.478 0.2521,-2.29857c0.16807,-0.82056 0.43005,-1.63124 0.78596,-2.43203c0.35591,-0.80079 0.82056,-1.56698 1.39397,-2.29857c0.57341,-0.73159 1.2605,-1.37914 2.0613,-1.94266c0.80079,-0.56352 1.72516,-1.01335 2.77311,-1.34948c1.04795,-0.33613 2.23431,-0.5042 3.55907,-0.5042h27.82007v7.71132h-27.82007c-1.0084,0 -1.77954,0.26693 -2.3134,0.80079c-0.53386,0.53386 -0.80079,1.32477 -0.80079,2.37271v20.82056c0,0.98863 0.27187,1.75482 0.81562,2.29857c0.54375,0.54375 1.30994,0.81562 2.29857,0.81562h27.82007z" data-paper-data="{&quot;glyphName&quot;:&quot;C&quot;,&quot;glyphIndex&quot;:2,&quot;word&quot;:1}" style="animation-play-state: running;"/><path d="M211.15917,316.54999h27.0786v-17.38013h7.71132v42.53089h-7.71132v-17.38013h-27.0786v17.38013h-7.71132v-42.53089h7.71132z" data-paper-data="{&quot;glyphName&quot;:&quot;H&quot;,&quot;glyphIndex&quot;:3,&quot;word&quot;:1}" style="animation-play-state: running;"/><path d="M297.348,316.96521c0,1.75976 -0.2175,3.33169 -0.6525,4.71577c-0.435,1.38408 -1.02323,2.60504 -1.76471,3.66288c-0.74147,1.05783 -1.59664,1.96243 -2.5655,2.71379c-0.96886,0.75136 -1.9822,1.36431 -3.04004,1.83885c-1.05783,0.47454 -2.12556,0.82056 -3.20316,1.03806c-1.07761,0.2175 -2.09095,0.32625 -3.04004,0.32625h-17.43945v-7.71132h17.43945c0.98863,-0.07909 1.88334,-0.28176 2.68413,-0.60801c0.80079,-0.32625 1.48789,-0.76619 2.0613,-1.31982c0.57341,-0.55363 1.01829,-1.22096 1.33465,-2.00198c0.31636,-0.78102 0.47454,-1.66584 0.47454,-2.65447v-3.49975c-0.09886,-0.96886 -0.30648,-1.85863 -0.62284,-2.6693c-0.31636,-0.81068 -0.74642,-1.50272 -1.29016,-2.07612c-0.54375,-0.57341 -1.20119,-1.02323 -1.97232,-1.34948c-0.77113,-0.32625 -1.6609,-0.48937 -2.6693,-0.48937h-17.38013c-1.02818,0 -1.80919,0.26693 -2.34305,0.80079c-0.53386,0.53386 -0.80079,1.30499 -0.80079,2.3134v31.70539h-7.71132v-31.70539c0,-1.97726 0.36085,-3.65793 1.08255,-5.04202c0.7217,-1.38408 1.62135,-2.50124 2.69896,-3.35146c1.07761,-0.85022 2.24913,-1.46812 3.51458,-1.85368c1.26545,-0.38557 2.43203,-0.57835 3.49975,-0.57835h17.43945c1.73999,0 3.30203,0.22244 4.68611,0.66733c1.38408,0.44488 2.60504,1.03806 3.66288,1.77954c1.05783,0.74147 1.95749,1.59664 2.69896,2.5655c0.74147,0.96886 1.35442,1.9822 1.83885,3.04004c0.48443,1.05783 0.83539,2.12556 1.05289,3.20316c0.2175,1.07761 0.32625,2.09095 0.32625,3.04004z" data-paper-data="{&quot;glyphName&quot;:&quot;P&quot;,&quot;glyphIndex&quot;:4,&quot;word&quot;:1}" style="animation-play-state: running;"/><path d="M345.60306,337.81544c0,0.55363 -0.09886,1.06772 -0.29659,1.54226c-0.19773,0.47454 -0.47454,0.88482 -0.83045,1.23085c-0.35591,0.34602 -0.77113,0.61789 -1.24567,0.81562c-0.47454,0.19773 -0.97874,0.29659 -1.51261,0.29659h-17.38013c-1.64113,0 -3.30203,-0.17795 -4.9827,-0.53386c-1.68067,-0.35591 -3.30697,-0.9046 -4.87889,-1.64607c-1.57192,-0.74147 -3.04993,-1.68562 -4.43401,-2.83243c-1.38408,-1.14681 -2.59516,-2.50618 -3.63322,-4.0781c-1.03806,-1.57192 -1.85368,-3.37123 -2.44686,-5.39792c-0.59318,-2.02669 -0.88977,-4.28571 -0.88977,-6.77706v-21.26545h7.71132v21.26545c0,2.17499 0.30153,4.01384 0.9046,5.51656c0.60306,1.50272 1.36925,2.75828 2.29857,3.76668c0.92931,1.0084 1.9476,1.79931 3.05487,2.37271c1.10727,0.57341 2.16016,0.99852 3.15868,1.27533c0.99852,0.27682 1.8784,0.44983 2.63964,0.51903c0.76125,0.0692 1.2605,0.10381 1.49778,0.10381h13.55413v-34.81957h7.71132z" data-paper-data="{&quot;glyphName&quot;:&quot;U&quot;,&quot;glyphIndex&quot;:5,&quot;word&quot;:1}" style="animation-play-state: running;"/><path d="M393.62086,341.70076h-35.17548c-0.55363,0 -1.06772,-0.09886 -1.54226,-0.29659c-0.47454,-0.19773 -0.88482,-0.4696 -1.23085,-0.81562c-0.34602,-0.34602 -0.61789,-0.7563 -0.81562,-1.23085c-0.19773,-0.47454 -0.29659,-0.98863 -0.29659,-1.54226v-38.64558h7.71132v34.81957h31.34948z" data-paper-data="{&quot;glyphName&quot;:&quot;L&quot;,&quot;glyphIndex&quot;:6,&quot;word&quot;:1}" style="animation-play-state: running;"/><path d="M440.15571,329.18469c0,1.52249 -0.19278,2.89174 -0.57835,4.10776c-0.38557,1.21602 -0.89471,2.28868 -1.52743,3.21799c-0.63272,0.92931 -1.3742,1.72022 -2.22442,2.37271c-0.85022,0.6525 -1.7301,1.18636 -2.63964,1.60158c-0.90954,0.41522 -1.83391,0.7217 -2.77311,0.91943c-0.9392,0.19773 -1.82402,0.29659 -2.65447,0.29659h-29.7479v-7.71132h29.7479c1.48295,0 2.6347,-0.435 3.45526,-1.30499c0.82056,-0.87 1.23085,-2.03658 1.23085,-3.49975c0,-0.71181 -0.10875,-1.36431 -0.32625,-1.95749c-0.2175,-0.59318 -0.52892,-1.10727 -0.93426,-1.54226c-0.40534,-0.435 -0.89965,-0.77113 -1.48295,-1.0084c-0.58329,-0.23727 -1.23085,-0.35591 -1.94266,-0.35591h-17.73604c-1.24567,0 -2.59021,-0.22244 -4.03361,-0.66733c-1.4434,-0.44488 -2.783,-1.16164 -4.01878,-2.15027c-1.23579,-0.98863 -2.26396,-2.28374 -3.08453,-3.88532c-0.82056,-1.60158 -1.23085,-3.55907 -1.23085,-5.87247c0,-2.3134 0.41028,-4.26594 1.23085,-5.85764c0.82056,-1.5917 1.84874,-2.8868 3.08453,-3.88532c1.23579,-0.99852 2.57538,-1.72022 4.01878,-2.1651c1.4434,-0.44488 2.78794,-0.66733 4.03361,-0.66733h26.24815v7.71132h-26.24815c-1.46317,0 -2.60504,0.44488 -3.42561,1.33465c-0.82056,0.88977 -1.23085,2.06624 -1.23085,3.52941c0,1.48295 0.41028,2.65447 1.23085,3.51458c0.82056,0.86011 1.96243,1.29016 3.42561,1.29016h17.73604h0.05932c0.83045,0.01977 1.71033,0.13347 2.63964,0.34108c0.92931,0.20761 1.85368,0.52892 2.77311,0.96391c0.91943,0.435 1.79436,0.98369 2.62481,1.64607c0.83045,0.66238 1.56698,1.45823 2.20959,2.38754c0.64261,0.92931 1.15175,1.99703 1.52743,3.20316c0.37568,1.20613 0.56352,2.57044 0.56352,4.09293z" data-paper-data="{&quot;glyphName&quot;:&quot;S&quot;,&quot;glyphIndex&quot;:7,&quot;word&quot;:1}" style="animation-play-state: running;"/><path d="M481.52991,324.32063h-24.34998v-7.77064h24.34998zM485,341.70076h-27.82007c-1.06772,0 -2.23431,-0.18784 -3.49975,-0.56352c-1.26545,-0.37568 -2.43697,-0.99357 -3.51458,-1.85368c-1.07761,-0.86011 -1.97726,-1.97726 -2.69896,-3.35146c-0.7217,-1.3742 -1.08255,-3.05981 -1.08255,-5.05685v-27.82007c0,-0.53386 0.09886,-1.03806 0.29659,-1.51261c0.19773,-0.47454 0.4696,-0.88977 0.81562,-1.24567c0.34602,-0.35591 0.7563,-0.63272 1.23085,-0.83045c0.47454,-0.19773 0.98863,-0.29659 1.54226,-0.29659h34.7306v7.71132h-30.9046v23.99407c0,1.0084 0.26693,1.77954 0.80079,2.3134c0.53386,0.53386 1.31488,0.80079 2.34305,0.80079h27.76075z" data-paper-data="{&quot;glyphName&quot;:&quot;E&quot;,&quot;glyphIndex&quot;:8,&quot;lastGlyphOfWord&quot;:true,&quot;word&quot;:1}" style="animation-play-state: running;"/></g><g data-paper-data="{&quot;fillRule&quot;:&quot;evenodd&quot;,&quot;fillRuleOriginal&quot;:&quot;evenodd&quot;,&quot;isIcon&quot;:true,&quot;iconStyle&quot;:&quot;standalone&quot;,&quot;selectedEffects&quot;:{&quot;container&quot;:&quot;&quot;,&quot;transformation&quot;:&quot;&quot;,&quot;pattern&quot;:&quot;&quot;},&quot;bounds&quot;:{&quot;x&quot;:203.38391020761756,&quot;y&quot;:128.29924461821057,&quot;width&quot;:143.2321795847649,&quot;height&quot;:143.0356363879387},&quot;iconType&quot;:&quot;icon&quot;,&quot;rawIconId&quot;:&quot;61353&quot;,&quot;isDetailed&quot;:false,&quot;suitableAsStandaloneIcon&quot;:true}" fill-rule="evenodd" style="animation-play-state: running;"><path d="M223.97939,197.42271l57.283,-57.28459l-12.20013,-11.83887l-61.6261,61.6261c-5.403,5.403 -5.403,14.1624 0,19.56541l61.84253,61.84413l12.0203,-12.0203l-57.31961,-57.31961c-1.26203,-1.26362 -1.26203,-3.31024 0,-4.57226zM326.02061,202.02839l-27.52589,27.52589l12.20172,11.84046l31.86739,-31.86898c5.403,-5.403 5.403,-14.1624 0,-19.56541l-32.12999,-32.12999l-12.0203,12.0203l27.60705,27.60546c1.26203,1.26362 1.26203,3.31024 0,4.57226z" data-paper-data="{&quot;isPathIcon&quot;:true}" style="animation-play-state: running;"/></g></g></g><circle id="pulse-circle1" cx="50%" cy="50%" r="45%" stroke="#fb8500" stroke-width="5" fill="none" style="animation-play-state: running;"/><circle id="pulse-circle2" cx="50%" cy="50%" r="45%" stroke="#fb8500" stroke-width="5" fill="none" style="animation-play-state: running;"/><circle id="pulse-circle3" cx="50%" cy="50%" r="45%" stroke="#fb8500" stroke-width="5" fill="none" style="animation-play-state: running;"/></svg>